<?xml version="1.0" encoding="UTF-8" standalone="no"?>
<!DOCTYPE score-partwise PUBLIC "-//Recordare//DTD MusicXML 1.0 Partwise//EN" "/musicxml/partwise.dtd">
<score-partwise>
	<work></work>
	<identification><encoding><software>Guitar Pro 5</software>
			<encoding-description>MusicXML 1.0</encoding-description>
		</encoding>
		<miscellaneous></miscellaneous>
	</identification>
	<part-list><score-part id="P1">
			<part-name>Track 1</part-name>
			<score-instrument id="P1-I1">
				<instrument-name></instrument-name>
			</score-instrument>
			<midi-instrument id="P1-I1">
				<midi-channel>1</midi-channel>
				<midi-program>25</midi-program>
			</midi-instrument>
		</score-part>
	</part-list>
	<part id="P1">
		<measure number="1">
			<attributes><divisions>2</divisions>
				<key><fifths>0</fifths>
					<mode>major</mode>
				</key>
				<time><beats>4</beats>
					<beat-type>4</beat-type>
				</time>
				<clef><sign>TAB</sign>
					<line>5</line>
				</clef>
				<staff-details><staff-lines>6</staff-lines>
					<staff-tuning line="6">
						<tuning-step>E</tuning-step>
						<tuning-octave>5</tuning-octave>
					</staff-tuning>
					<staff-tuning line="5">
						<tuning-step>B</tuning-step>
						<tuning-octave>4</tuning-octave>
					</staff-tuning>
					<staff-tuning line="4">
						<tuning-step>G</tuning-step>
						<tuning-octave>4</tuning-octave>
					</staff-tuning>
					<staff-tuning line="3">
						<tuning-step>D</tuning-step>
						<tuning-octave>4</tuning-octave>
					</staff-tuning>
					<staff-tuning line="2">
						<tuning-step>A</tuning-step>
						<tuning-octave>3</tuning-octave>
					</staff-tuning>
					<staff-tuning line="1">
						<tuning-step>E</tuning-step>
						<tuning-octave>3</tuning-octave>
					</staff-tuning>
				</staff-details>
			</attributes>
			<sound pan="8" tempo="120"></sound>
			<barline location="left">
				<bar-style>heavy-light</bar-style>
			</barline>
			<note><pitch><step>A</step>
					<octave>6</octave>
				</pitch>
				<duration>6</duration>
				<voice>1</voice>
				<type>half</type>
				<dot></dot>
				<notations><dynamics><f></f>
					</dynamics>
					<technical><string>2</string>
						<fret>22</fret>
					</technical>
				</notations>
			</note>
			<note><pitch><step>C</step>
					<octave>7</octave>
				</pitch>
				<duration>2</duration>
				<voice>1</voice>
				<type>quarter</type>
				<notations><dynamics><f></f>
					</dynamics>
					<technical><string>1</string>
						<fret>20</fret>
					</technical>
				</notations>
			</note>
		</measure>
		<measure number="2">
			<note><pitch><step>B</step>
					<octave>6</octave>
				</pitch>
				<duration>1</duration>
				<voice>1</voice>
				<type>eighth</type>
				<notations><dynamics><f></f>
					</dynamics>
					<technical><string>1</string>
						<fret>19</fret>
					</technical>
				</notations>
			</note>
			<note><pitch><step>A</step>
					<octave>6</octave>
				</pitch>
				<duration>1</duration>
				<voice>1</voice>
				<type>eighth</type>
				<notations><dynamics><f></f>
					</dynamics>
					<technical><string>1</string>
						<fret>17</fret>
					</technical>
				</notations>
			</note>
			<note><pitch><step>G</step>
					<octave>6</octave>
				</pitch>
				<duration>4</duration>
				<voice>1</voice>
				<type>half</type>
				<notations><dynamics><f></f>
					</dynamics>
					<technical><string>1</string>
						<fret>15</fret>
					</technical>
				</notations>
			</note>
			<note><pitch><step>B</step>
					<octave>6</octave>
				</pitch>
				<duration>2</duration>
				<voice>1</voice>
				<type>quarter</type>
				<notations><dynamics><f></f>
					</dynamics>
					<technical><string>1</string>
						<fret>19</fret>
					</technical>
				</notations>
			</note>
		</measure>
		<measure number="3">
			<note><pitch><step>C</step>
					<octave>7</octave>
				</pitch>
				<duration>1</duration>
				<voice>1</voice>
				<type>eighth</type>
				<notations><dynamics><f></f>
					</dynamics>
					<technical><string>1</string>
						<fret>20</fret>
					</technical>
				</notations>
			</note>
			<note><pitch><step>B</step>
					<octave>6</octave>
				</pitch>
				<duration>1</duration>
				<voice>1</voice>
				<type>eighth</type>
				<notations><dynamics><f></f>
					</dynamics>
					<technical><string>1</string>
						<fret>19</fret>
					</technical>
				</notations>
			</note>
			<note><pitch><step>A</step>
					<octave>6</octave>
				</pitch>
				<duration>4</duration>
				<voice>1</voice>
				<type>half</type>
				<notations><dynamics><f></f>
					</dynamics>
					<technical><string>1</string>
						<fret>17</fret>
					</technical>
				</notations>
			</note>
			<note><pitch><step>C</step>
					<octave>7</octave>
				</pitch>
				<duration>2</duration>
				<voice>1</voice>
				<type>quarter</type>
				<notations><dynamics><f></f>
					</dynamics>
					<technical><string>1</string>
						<fret>20</fret>
					</technical>
				</notations>
			</note>
		</measure>
		<measure number="4">
			<note><pitch><step>D</step>
					<octave>7</octave>
				</pitch>
				<duration>2</duration>
				<voice>1</voice>
				<type>quarter</type>
				<notations><dynamics><f></f>
					</dynamics>
					<technical><string>1</string>
						<fret>22</fret>
					</technical>
				</notations>
			</note>
			<note><pitch><step>B</step>
					<octave>6</octave>
				</pitch>
				<duration>2</duration>
				<voice>1</voice>
				<type>quarter</type>
				<notations><dynamics><f></f>
					</dynamics>
					<technical><string>1</string>
						<fret>19</fret>
					</technical>
				</notations>
			</note>
			<note><pitch><step>E</step>
					<octave>7</octave>
				</pitch>
				<duration>2</duration>
				<voice>1</voice>
				<type>quarter</type>
				<notations><dynamics><f></f>
					</dynamics>
					<technical><string>1</string>
						<fret>24</fret>
					</technical>
				</notations>
			</note>
			<note><pitch><step>D</step>
					<octave>7</octave>
				</pitch>
				<duration>2</duration>
				<voice>1</voice>
				<type>quarter</type>
				<notations><dynamics><f></f>
					</dynamics>
					<technical><string>1</string>
						<fret>22</fret>
					</technical>
				</notations>
			</note>
		</measure>
		<measure number="5">
			<note><pitch><step>A</step>
					<octave>6</octave>
				</pitch>
				<duration>6</duration>
				<voice>1</voice>
				<type>half</type>
				<dot></dot>
				<notations><dynamics><f></f>
					</dynamics>
					<technical><string>2</string>
						<fret>22</fret>
					</technical>
				</notations>
			</note>
			<note><pitch><step>C</step>
					<octave>7</octave>
				</pitch>
				<duration>2</duration>
				<voice>1</voice>
				<type>quarter</type>
				<notations><dynamics><f></f>
					</dynamics>
					<technical><string>1</string>
						<fret>20</fret>
					</technical>
				</notations>
			</note>
		</measure>
		<measure number="6">
			<note><pitch><step>B</step>
					<octave>6</octave>
				</pitch>
				<duration>1</duration>
				<voice>1</voice>
				<type>eighth</type>
				<notations><dynamics><f></f>
					</dynamics>
					<technical><string>1</string>
						<fret>19</fret>
					</technical>
				</notations>
			</note>
			<note><pitch><step>A</step>
					<octave>6</octave>
				</pitch>
				<duration>1</duration>
				<voice>1</voice>
				<type>eighth</type>
				<notations><dynamics><f></f>
					</dynamics>
					<technical><string>1</string>
						<fret>17</fret>
					</technical>
				</notations>
			</note>
			<note><pitch><step>G</step>
					<octave>6</octave>
				</pitch>
				<duration>4</duration>
				<voice>1</voice>
				<type>half</type>
				<notations><dynamics><f></f>
					</dynamics>
					<technical><string>1</string>
						<fret>15</fret>
					</technical>
				</notations>
			</note>
			<note><pitch><step>B</step>
					<octave>6</octave>
				</pitch>
				<duration>2</duration>
				<voice>1</voice>
				<type>quarter</type>
				<notations><dynamics><f></f>
					</dynamics>
					<technical><string>1</string>
						<fret>19</fret>
					</technical>
				</notations>
			</note>
		</measure>
		<measure number="7">
			<note><pitch><step>A</step>
					<octave>6</octave>
				</pitch>
				<duration>4</duration>
				<voice>1</voice>
				<type>half</type>
				<notations><dynamics><f></f>
					</dynamics>
					<technical><string>1</string>
						<fret>17</fret>
					</technical>
				</notations>
			</note>
			<note><pitch><step>E</step>
					<octave>6</octave>
				</pitch>
				<duration>2</duration>
				<voice>1</voice>
				<type>quarter</type>
				<notations><dynamics><f></f>
					</dynamics>
					<technical><string>2</string>
						<fret>17</fret>
					</technical>
				</notations>
			</note>
			<note><pitch><step>G</step>
					<octave>6</octave>
				</pitch>
				<duration>2</duration>
				<voice>1</voice>
				<type>quarter</type>
				<notations><dynamics><f></f>
					</dynamics>
					<technical><string>1</string>
						<fret>15</fret>
					</technical>
				</notations>
			</note>
		</measure>
		<measure number="8">
			<attributes><divisions>4</divisions>
			</attributes>
			<barline><bar-style>light-light</bar-style>
			</barline>
			<barline><bar-style>light-light</bar-style>
			</barline>
			<note><pitch><step>A</step>
					<octave>6</octave>
				</pitch>
				<duration>6</duration>
				<voice>1</voice>
				<type>quarter</type>
				<dot></dot>
				<notations><dynamics><f></f>
					</dynamics>
					<technical><string>1</string>
						<fret>17</fret>
					</technical>
				</notations>
			</note>
			<note><pitch><step>B</step>
					<octave>6</octave>
				</pitch>
				<duration>2</duration>
				<voice>1</voice>
				<type>eighth</type>
				<notations><dynamics><f></f>
					</dynamics>
					<technical><string>1</string>
						<fret>19</fret>
					</technical>
				</notations>
			</note>
			<note><pitch><step>A</step>
					<octave>6</octave>
				</pitch>
				<duration>2</duration>
				<voice>1</voice>
				<type>eighth</type>
				<notations><dynamics><f></f>
					</dynamics>
					<technical><string>1</string>
						<fret>17</fret>
					</technical>
				</notations>
			</note>
			<note><pitch><step>B</step>
					<octave>6</octave>
				</pitch>
				<duration>2</duration>
				<voice>1</voice>
				<type>eighth</type>
				<notations><dynamics><f></f>
					</dynamics>
					<technical><string>1</string>
						<fret>19</fret>
					</technical>
				</notations>
			</note>
			<note><pitch><step>C</step>
					<octave>7</octave>
				</pitch>
				<duration>2</duration>
				<voice>1</voice>
				<type>eighth</type>
				<notations><dynamics><f></f>
					</dynamics>
					<technical><string>1</string>
						<fret>20</fret>
					</technical>
				</notations>
			</note>
			<note><pitch><step>B</step>
					<octave>6</octave>
				</pitch>
				<duration>2</duration>
				<voice>1</voice>
				<type>eighth</type>
				<notations><dynamics><f></f>
					</dynamics>
					<technical><string>1</string>
						<fret>19</fret>
					</technical>
				</notations>
			</note>
		</measure>
		<measure number="9">
			<note><pitch><step>A</step>
					<octave>6</octave>
				</pitch>
				<duration>2</duration>
				<voice>1</voice>
				<type>eighth</type>
				<notations><dynamics><f></f>
					</dynamics>
					<technical><string>1</string>
						<fret>17</fret>
					</technical>
				</notations>
			</note>
			<note><pitch><step>B</step>
					<octave>6</octave>
				</pitch>
				<duration>2</duration>
				<voice>1</voice>
				<type>eighth</type>
				<notations><dynamics><f></f>
					</dynamics>
					<technical><string>1</string>
						<fret>19</fret>
					</technical>
				</notations>
			</note>
			<note><pitch><step>C</step>
					<octave>7</octave>
				</pitch>
				<duration>2</duration>
				<voice>1</voice>
				<type>eighth</type>
				<notations><dynamics><f></f>
					</dynamics>
					<technical><string>1</string>
						<fret>20</fret>
					</technical>
				</notations>
			</note>
			<note><pitch><step>D</step>
					<octave>7</octave>
				</pitch>
				<duration>2</duration>
				<voice>1</voice>
				<type>eighth</type>
				<notations><dynamics><f></f>
					</dynamics>
					<technical><string>1</string>
						<fret>22</fret>
					</technical>
				</notations>
			</note>
			<note><pitch><step>E</step>
					<octave>7</octave>
				</pitch>
				<duration>4</duration>
				<voice>1</voice>
				<type>quarter</type>
				<notations><dynamics><f></f>
					</dynamics>
					<technical><string>1</string>
						<fret>24</fret>
					</technical>
				</notations>
			</note>
			<note><pitch><step>A</step>
					<octave>6</octave>
				</pitch>
				<duration>4</duration>
				<voice>1</voice>
				<type>quarter</type>
				<notations><dynamics><f></f>
					</dynamics>
					<technical><string>2</string>
						<fret>22</fret>
					</technical>
				</notations>
			</note>
		</measure>
		<measure number="10">
			<note><pitch><step>D</step>
					<octave>7</octave>
				</pitch>
				<duration>2</duration>
				<voice>1</voice>
				<type>eighth</type>
				<notations><dynamics><f></f>
					</dynamics>
					<technical><string>1</string>
						<fret>22</fret>
					</technical>
				</notations>
			</note>
			<note><pitch><step>E</step>
					<octave>7</octave>
				</pitch>
				<duration>2</duration>
				<voice>1</voice>
				<type>eighth</type>
				<notations><dynamics><f></f>
					</dynamics>
					<technical><string>1</string>
						<fret>24</fret>
					</technical>
				</notations>
			</note>
			<note><pitch><step>D</step>
					<octave>7</octave>
				</pitch>
				<duration>4</duration>
				<voice>1</voice>
				<type>quarter</type>
				<notations><dynamics><f></f>
					</dynamics>
					<technical><string>1</string>
						<fret>22</fret>
					</technical>
				</notations>
			</note>
			<note><pitch><step>C</step>
					<octave>7</octave>
				</pitch>
				<duration>2</duration>
				<voice>1</voice>
				<type>eighth</type>
				<notations><dynamics><f></f>
					</dynamics>
					<technical><string>1</string>
						<fret>20</fret>
					</technical>
				</notations>
			</note>
			<note><pitch><step>B</step>
					<octave>6</octave>
				</pitch>
				<duration>2</duration>
				<voice>1</voice>
				<type>eighth</type>
				<notations><dynamics><f></f>
					</dynamics>
					<technical><string>1</string>
						<fret>19</fret>
					</technical>
				</notations>
			</note>
			<note><pitch><step>D</step>
					<octave>7</octave>
				</pitch>
				<duration>2</duration>
				<voice>1</voice>
				<type>eighth</type>
				<notations><dynamics><f></f>
					</dynamics>
					<technical><string>1</string>
						<fret>22</fret>
					</technical>
				</notations>
			</note>
			<note><pitch><step>C</step>
					<octave>7</octave>
				</pitch>
				<duration>2</duration>
				<voice>1</voice>
				<type>eighth</type>
				<notations><dynamics><f></f>
					</dynamics>
					<technical><string>1</string>
						<fret>20</fret>
					</technical>
				</notations>
			</note>
		</measure>
		<measure number="11">
			<note><pitch><step>A</step>
					<octave>6</octave>
				</pitch>
				<duration>2</duration>
				<voice>1</voice>
				<type>eighth</type>
				<notations><dynamics><f></f>
					</dynamics>
					<technical><string>2</string>
						<fret>22</fret>
					</technical>
				</notations>
			</note>
			<note><pitch><step>B</step>
					<octave>6</octave>
				</pitch>
				<duration>2</duration>
				<voice>1</voice>
				<type>eighth</type>
				<notations><dynamics><f></f>
					</dynamics>
					<technical><string>1</string>
						<fret>19</fret>
					</technical>
				</notations>
			</note>
			<note><pitch><step>C</step>
					<octave>7</octave>
				</pitch>
				<duration>2</duration>
				<voice>1</voice>
				<type>eighth</type>
				<notations><dynamics><f></f>
					</dynamics>
					<technical><string>1</string>
						<fret>20</fret>
					</technical>
				</notations>
			</note>
			<note><pitch><step>D</step>
					<octave>7</octave>
				</pitch>
				<duration>2</duration>
				<voice>1</voice>
				<type>eighth</type>
				<notations><dynamics><f></f>
					</dynamics>
					<technical><string>1</string>
						<fret>22</fret>
					</technical>
				</notations>
			</note>
			<note><pitch><step>E</step>
					<octave>7</octave>
				</pitch>
				<duration>2</duration>
				<voice>1</voice>
				<type>eighth</type>
				<notations><dynamics><f></f>
					</dynamics>
					<technical><string>1</string>
						<fret>24</fret>
					</technical>
				</notations>
			</note>
			<note><pitch><step>A</step>
					<octave>7</octave>
				</pitch>
				<duration>2</duration>
				<voice>1</voice>
				<type>eighth</type>
				<notations><dynamics><f></f>
					</dynamics>
					<technical><string>1</string>
						<fret>29</fret>
					</technical>
				</notations>
			</note>
			<note><pitch><step>G</step>
					<octave>7</octave>
				</pitch>
				<duration>2</duration>
				<voice>1</voice>
				<type>eighth</type>
				<notations><dynamics><f></f>
					</dynamics>
					<technical><string>1</string>
						<fret>27</fret>
					</technical>
				</notations>
			</note>
			<note><rest></rest>
				<duration>2</duration>
				<voice>1</voice>
				<type>eighth</type>
			</note>
		</measure>
		<measure number="12">
			<note><pitch><step>A</step>
					<octave>7</octave>
				</pitch>
				<duration>16</duration>
				<voice>1</voice>
				<type>whole</type>
				<notations><dynamics><f></f>
					</dynamics>
					<technical><string>1</string>
						<fret>29</fret>
					</technical>
				</notations>
			</note>
		</measure>
		<measure number="13">
			<note><pitch><step>E</step>
					<octave>7</octave>
				</pitch>
				<duration>2</duration>
				<voice>1</voice>
				<type>eighth</type>
				<notations><dynamics><f></f>
					</dynamics>
					<technical><string>1</string>
						<fret>24</fret>
					</technical>
				</notations>
			</note>
			<note><pitch><step>A</step>
					<octave>6</octave>
				</pitch>
				<duration>2</duration>
				<voice>1</voice>
				<type>eighth</type>
				<notations><dynamics><f></f>
					</dynamics>
					<technical><string>2</string>
						<fret>22</fret>
					</technical>
				</notations>
			</note>
			<note><pitch><step>E</step>
					<octave>7</octave>
				</pitch>
				<duration>2</duration>
				<voice>1</voice>
				<type>eighth</type>
				<notations><dynamics><f></f>
					</dynamics>
					<technical><string>1</string>
						<fret>24</fret>
					</technical>
				</notations>
			</note>
			<note><pitch><step>G</step>
					<octave>7</octave>
				</pitch>
				<duration>2</duration>
				<voice>1</voice>
				<type>eighth</type>
				<notations><dynamics><f></f>
					</dynamics>
					<technical><string>1</string>
						<fret>27</fret>
					</technical>
				</notations>
			</note>
			<note><pitch><step>E</step>
					<octave>7</octave>
				</pitch>
				<duration>4</duration>
				<voice>1</voice>
				<type>quarter</type>
				<notations><dynamics><f></f>
					</dynamics>
					<technical><string>1</string>
						<fret>24</fret>
					</technical>
				</notations>
			</note>
			<note><pitch><step>A</step>
					<octave>6</octave>
				</pitch>
				<duration>4</duration>
				<voice>1</voice>
				<type>quarter</type>
				<notations><dynamics><f></f>
					</dynamics>
					<technical><string>2</string>
						<fret>22</fret>
					</technical>
				</notations>
			</note>
		</measure>
		<measure number="14">
			<note><pitch><step>D</step>
					<octave>7</octave>
				</pitch>
				<duration>2</duration>
				<voice>1</voice>
				<type>eighth</type>
				<notations><dynamics><f></f>
					</dynamics>
					<technical><string>1</string>
						<fret>22</fret>
					</technical>
				</notations>
			</note>
			<note><pitch><step>E</step>
					<octave>7</octave>
				</pitch>
				<duration>2</duration>
				<voice>1</voice>
				<type>eighth</type>
				<notations><dynamics><f></f>
					</dynamics>
					<technical><string>1</string>
						<fret>24</fret>
					</technical>
				</notations>
			</note>
			<note><pitch><step>D</step>
					<octave>7</octave>
				</pitch>
				<duration>2</duration>
				<voice>1</voice>
				<type>eighth</type>
				<notations><dynamics><f></f>
					</dynamics>
					<technical><string>1</string>
						<fret>22</fret>
					</technical>
				</notations>
			</note>
			<note><pitch><step>C</step>
					<octave>7</octave>
				</pitch>
				<duration>2</duration>
				<voice>1</voice>
				<type>eighth</type>
				<notations><dynamics><f></f>
					</dynamics>
					<technical><string>1</string>
						<fret>20</fret>
					</technical>
				</notations>
			</note>
			<note><pitch><step>B</step>
					<octave>6</octave>
				</pitch>
				<duration>2</duration>
				<voice>1</voice>
				<type>eighth</type>
				<notations><dynamics><f></f>
					</dynamics>
					<technical><string>1</string>
						<fret>19</fret>
					</technical>
				</notations>
			</note>
			<note><pitch><step>G</step>
					<octave>6</octave>
				</pitch>
				<duration>2</duration>
				<voice>1</voice>
				<type>eighth</type>
				<notations><dynamics><f></f>
					</dynamics>
					<technical><string>2</string>
						<fret>20</fret>
					</technical>
				</notations>
			</note>
			<note><pitch><step>C</step>
					<octave>7</octave>
				</pitch>
				<duration>2</duration>
				<voice>1</voice>
				<type>eighth</type>
				<notations><dynamics><f></f>
					</dynamics>
					<technical><string>1</string>
						<fret>20</fret>
					</technical>
				</notations>
			</note>
			<note><pitch><step>B</step>
					<octave>6</octave>
				</pitch>
				<duration>2</duration>
				<voice>1</voice>
				<type>eighth</type>
				<notations><dynamics><f></f>
					</dynamics>
					<technical><string>1</string>
						<fret>19</fret>
					</technical>
				</notations>
			</note>
		</measure>
		<measure number="15">
			<note><pitch><step>A</step>
					<octave>6</octave>
				</pitch>
				<duration>2</duration>
				<voice>1</voice>
				<type>eighth</type>
				<notations><dynamics><f></f>
					</dynamics>
					<technical><string>1</string>
						<fret>17</fret>
					</technical>
				</notations>
			</note>
			<note><pitch><step>B</step>
					<octave>6</octave>
				</pitch>
				<duration>2</duration>
				<voice>1</voice>
				<type>eighth</type>
				<notations><dynamics><f></f>
					</dynamics>
					<technical><string>1</string>
						<fret>19</fret>
					</technical>
				</notations>
			</note>
			<note><pitch><step>C</step>
					<octave>7</octave>
				</pitch>
				<duration>2</duration>
				<voice>1</voice>
				<type>eighth</type>
				<notations><dynamics><f></f>
					</dynamics>
					<technical><string>1</string>
						<fret>20</fret>
					</technical>
				</notations>
			</note>
			<note><pitch><step>D</step>
					<octave>7</octave>
				</pitch>
				<duration>2</duration>
				<voice>1</voice>
				<type>eighth</type>
				<notations><dynamics><f></f>
					</dynamics>
					<technical><string>1</string>
						<fret>22</fret>
					</technical>
				</notations>
			</note>
			<note><pitch><step>E</step>
					<octave>7</octave>
				</pitch>
				<duration>2</duration>
				<voice>1</voice>
				<type>eighth</type>
				<notations><dynamics><f></f>
					</dynamics>
					<technical><string>1</string>
						<fret>24</fret>
					</technical>
				</notations>
			</note>
			<note><pitch><step>A</step>
					<octave>6</octave>
				</pitch>
				<duration>2</duration>
				<voice>1</voice>
				<type>eighth</type>
				<notations><dynamics><f></f>
					</dynamics>
					<technical><string>2</string>
						<fret>22</fret>
					</technical>
				</notations>
			</note>
			<note><pitch><step>G</step>
					<octave>6</octave>
				</pitch>
				<duration>2</duration>
				<voice>1</voice>
				<type>eighth</type>
				<notations><dynamics><f></f>
					</dynamics>
					<technical><string>3</string>
						<fret>24</fret>
					</technical>
				</notations>
			</note>
			<note><pitch><step>B</step>
					<octave>6</octave>
				</pitch>
				<duration>2</duration>
				<voice>1</voice>
				<type>eighth</type>
				<notations><dynamics><f></f>
					</dynamics>
					<technical><string>2</string>
						<fret>24</fret>
					</technical>
				</notations>
			</note>
		</measure>
		<measure number="16">
			<barline><bar-style>light-heavy</bar-style>
			</barline>
			<note><pitch><step>A</step>
					<octave>6</octave>
				</pitch>
				<duration>16</duration>
				<voice>1</voice>
				<type>whole</type>
				<notations><dynamics><f></f>
					</dynamics>
					<technical><string>2</string>
						<fret>22</fret>
					</technical>
				</notations>
			</note>
		</measure>
	</part>
</score-partwise>
